# xmcd
# Copyright (C) 1995-1998 Ti Kan
#
# Track frame offsets:
#       150
#       16464
#       26532
#       38317
#       47813
#       55232
#       68042
#       77583
#       88082
#       100484
#       113045
#       124070
#       133086
#       143830
#       157096
#       168159
#       179107
#       192180
#       202293
#       214143
#       227071
#       243356
#       261836
#       279819
#       289883
#       299729
#       311092
#       322872
#       332826
#
# Disc length: 4618 seconds
#
# Revision: 0
# Processed by: cddbd v1.5.2PL0 Copyright (c) Steve Scherf et al.
# Submitted via: CD-Import v1.0
#
DISCID=b512081d
DTITLE=Beach Boys - Beach Boys Greatest Hits
DYEAR=1900
DGENRE=
TTITLE0=Good Vibrations
TTITLE1=I Get Around
TTITLE2=California Girls
TTITLE3=Surfin' Safari
TTITLE4=Little Deuce Coupe
TTITLE5=God Only Knows
TTITLE6=Barbara Ann
TTITLE7=Fun, Fun, Fun
TTITLE8=Don't Worry Baby
TTITLE9=Help Me Rhonda
TTITLE10=Surfin' Usa
TTITLE11=When I Grow Up
TTITLE12=Wouldn't It Be Nice
TTITLE13=Sloop John B
TTITLE14=Surfer Girl
TTITLE15=Do Ti Again
TTITLE16=Break Away
TTITLE17=You're So Good To Me
TTITLE18=I Can Hear Music
TTITLE19=Caroline No
TTITLE20=Hereos And Villains
TTITLE21=Disney Girls
TTITLE22=Lady Lynda
TTITLE23=Then I Kissed Her
TTITLE24=Darlin'
TTITLE25=Friends
TTITLE26=Wild Honey
TTITLE27=In My Room
TTITLE28=Cotton Fields
EXTD=
EXTT0=
EXTT1=
EXTT2=
EXTT3=
EXTT4=
EXTT5=
EXTT6=
EXTT7=
EXTT8=
EXTT9=
EXTT10=
EXTT11=
EXTT12=
EXTT13=
EXTT14=
EXTT15=
EXTT16=
EXTT17=
EXTT18=
EXTT19=
EXTT20=
EXTT21=
EXTT22=
EXTT23=
EXTT24=
EXTT25=
EXTT26=
EXTT27=
EXTT28=
PLAYORDER=
